<svg xmlns="http://www.w3.org/2000/svg" version="1.1" xmlns:xlink="http://www.w3.org/1999/xlink" width="512" height="512" x="0" y="0" viewBox="0 0 469 469.333" style="enable-background:new 0 0 512 512" xml:space="preserve" class=""><g><path d="M352.168 384h-320c-17.676 0-32 14.328-32 32 0 29.457 23.875 53.332 53.332 53.332h277.332c29.457 0 53.336-23.875 53.336-53.332 0-17.672-14.328-32-32-32zM101.418 191.281c.32-23.304 19.34-42.008 42.644-41.949h96.211c23.555.027 42.641 19.113 42.668 42.668l11.114 170.668h46.894l-10.117-192c-.039-35.332-28.668-63.961-64-64h-10.664V85.332H277.5c11.777-.012 21.32-9.555 21.332-21.332V42.668C298.805 19.113 279.719.028 256.168 0h-128C104.613.027 85.528 19.113 85.5 42.668V64c.012 11.777 9.555 21.32 21.332 21.332h21.336v21.336H117.5c-35.137-.035-63.715 28.3-63.98 63.437L43.387 362.668h46.375zM149.5 85.332h85.332v21.336H149.5zm0 0" fill="#000000" opacity="1" data-original="#000000" class=""></path><path d="M240.273 170.668h-96.21c-11.778.012-21.32 9.555-21.333 21.332l-11.582 170.668h161.528l-11.051-169.98a21.533 21.533 0 0 0-21.352-22.02zm0 0" fill="#000000" opacity="1" data-original="#000000" class=""></path></g></svg>